<svg id="Layer_1" data-name="Layer 1" xmlns="http://www.w3.org/2000/svg" viewBox="0 0 476.56 379.73"><defs><style>.cls-1{fill:#fff;}</style></defs><title>gun</title><path class="cls-1" d="M352.9,160.1l82.2,0.1c2.5-.1,5.4-0.5,4.7,3.5-0.8,4.2,1.6,6.2,4.9,8,2.4,1.3,5.5,3,3.9,6.4-1.5,3.2-3,6.3-7.9,6.2-13.5-.4-27,0-40.5-0.2a8,8,0,0,0-7.4,3.6c-4.5,6.5-9.4,12.8-13.8,19.4-2.4,3.6-5,5.3-9.6,5.2-21-.3-42,0-63-0.2-3.8,0-4.9,1.1-4.7,4.8,0.3,6.5-.2,13,0.2,19.5,0.3,4.2-1.3,5.1-5.1,4.9a127.76,127.76,0,0,0-17.5,0c-6,.6-9.8-1.7-12.8-6.5-2.5-4-5.9-6-11.2-5.8-11.5.4-23,.1-34.5,0.1-18.2,0-36.3-.1-54.5.1-3.8,0-5-1.1-4.7-4.8,0.3-4.5,0-9,.1-13.5,0.1-2.4-.4-4-2.6-5.4-8.3-5.3-13.3-12-11.7-22.9,0.7-4.6,1.6-5.6,6-5.6,33.6,0.2,67.3.1,100.9,0.1,12.2,0,12.5,0,12.2-12,0-4.5,1.6-5.1,5.5-5.1,26.9,0.2,53.9.1,80.9,0.1h0Zm-46,43.9c-9-6.1-18.2-12.2-27.3-18.4-1.3-.8-2.6-0.5-3.9-0.5q-52.35,0-104.5-.1c-3.8,0-5,1.1-4.7,4.8a67.33,67.33,0,0,1,0,11c-0.1,3.1.6,4.4,4.1,4.4q67.2-.15,134.4-0.1h0.1a1.49,1.49,0,0,0,1.8-1.1h0Zm-131.7,5.2c-5.7,0-8.7,2.1-8.5,6.1,0.2,3.8,3.2,5.9,8.4,5.9H284.5c4.8,0,7.3-2.2,7.1-6.2-0.2-4.4-2.9-5.9-7-5.9h-55C211.5,209.1,193.3,209.1,175.2,209.2Zm177.4-35.1h76.5c1.3,0,2.8,0,4-.1s1.4-1.1,1.4-2.2v-0.2a1.62,1.62,0,0,0-1.6-1.4c-1.3-.1-2.7-0.1-4-0.1H273.1c-1.3,0-2.4.2-2.5,1.8,0,1.8,1.1,2.2,2.6,2.2h79.4Zm0.5-7q38.25,0,76.4-.1c1.6,0,4.7,1.5,4.8-1.6,0.1-2.9-2.7-2.3-4.6-2.3H275.4a10.12,10.12,0,0,0-3,.2,2.25,2.25,0,0,0-1.7,2.2c-0.1,1.4.8,1.6,2,1.6h80.4Zm-4.9,36.7c-6.1-3.9-12.5-7.4-18.2-11.7-7.6-5.7-15.9-8.2-25.4-7.1-4,.5-8,0.1-12,0.1-0.5,2,1.1,2.3,2.1,2.9,6.1,4,12.4,7.6,18.3,11.9a26.23,26.23,0,0,0,18.5,5.3c5.4-.5,10.9-0.1,16.3-0.1l0.4-1.3h0Zm-23-17.7c9.6,6.2,18.8,13,28.8,18.3,4.7,2.4,10.9.9,16.3,0.4,1.8-.2,3-2.6,3.6-4.5,0.8-2.5-1.8-2.5-2.9-3.2-5.5-3.7-11.2-7.1-16.8-10.6a9.12,9.12,0,0,0-4.2-1.4H325.6l-0.4,1h0Z" transform="translate(-18.05 -33)"/><path class="cls-1" d="M194.1,338.5c-6.6,0-13.3-.1-19.9,0-2.6,0-5.7-.2-5.6,3.8,0.1,3.5,2.5,4.2,5.5,4.2,5.7-.1,11.3,0,17-0.1,2.6-.1,3.6.8,3.5,3.4-0.1,4.8,0,9.7,0,14.5,0,1.3.1,2.5-1.1,3.6-4.1,3.8-16.6,4.7-21.4,1.7a105.76,105.76,0,0,1-21-17.3c-2-2.1-5.9-2.9-6.1-5.6-0.3-6.8-2-13.9,2-20.4,5.3-8.7,13.3-14.9,19.8-22.4,9.6-10.9,10.8-22.5,2.7-34.4-4.4-6.5-10.4-11.1-17.1-14.8-3.3-1.8-2.7-4.2-2.5-6.8s2.5-1.7,4-1.7c32,0,64,.1,96,0,3.1,0,3.9,1,3.9,4-0.2,9.8-.1,19.7-0.1,29.5,0,8.3-5.2,13.5-13.6,13.5-10.7,0-21.4.3-32-.1-7.9-.3-12,3-12.5,10.6-0.2,3.2-1.8,4.9-5.5,4.6-5-.4-10-0.2-15-0.1-2.7,0-6.2-.7-6.3,3.5s2.9,4.5,6.2,4.5q8.25-.15,16.5,0c1,0,2.4-.5,3,2H173.6c-2.3,0-4.8-.1-4.9,3.3s2.3,4.4,4.8,4.5c5,0.2,10,0,15,.1,1.9,0.1,4.1-.6,5.8,1.4-5.9.6-11.8,0.4-17.7,0.6-3.2.1-7.9-1.4-7.8,4s4.8,3.8,7.9,3.9c5.8,0.2,11.7.1,17.5,0.1Zm38.7-50.3c9.4,0.7,17-7.8,17.6-17.8,0.6-9.7-8.1-18.3-17.7-18.3-13,0-26-.1-39,0-10.5,0-16.9,7.7-17.3,19.3-0.3,7.8,8.7,17.6,17.4,16.8,6.6-.6,13.3-0.1,20-0.1C220.2,288.1,226.5,287.7,232.8,288.2Zm-52.9,79.7c3.8,0.3,5.6-2,5.7-5.8,0.1-3.5-1.7-5-5.1-5.1-3.6-.1-5.7,1.3-5.9,5.5C174.8,365.4,176.4,367.8,179.9,367.9Z" transform="translate(-18.05 -33)"/><path class="cls-1" d="M412.7,242c3.5,0,5.4,1.2,6.4,4.7a35.52,35.52,0,0,1-.3,21.4c-0.9,2.9-2.5,4-5.4,4-29.8-.1-59.7,0-89.5-0.1-7.8,0-13.5-7-13.3-15.5,0.2-9,5.3-14.4,13.5-14.4h43.5C382.6,242.1,397.6,242.2,412.7,242Zm-34.5,18.2c2.6,0,5.1-.6,5.2-3.4,0.1-3.2-2.8-2.6-4.9-2.6-12.2,0-24.4-.1-36.5,0a8.19,8.19,0,0,1-6.6-2.6l-0.2-.2a7.94,7.94,0,0,0-11.3-.1,8.63,8.63,0,0,0,.2,11.7,1.51,1.51,0,0,0,.4.4,7.83,7.83,0,0,0,11.1-1.1c1.7-2.1,3.4-2.2,5.6-2.2h18C365.5,260.1,371.8,260,378.2,260.2Z" transform="translate(-18.05 -33)"/><path class="cls-1" d="M443.9,231c1.7,0.1,4.7-1.1,4.4,2.3-0.2,3,2.2,6.9-2.3,8.7-2.5,1-4.9,2-7.4,2.9-1.4.5-2.7,1.2-3.5-1.4-1.2-4.1-4.3-5.5-8.8-5.5-33.8.2-67.7,0.2-101.5,0.1-7.3,0-13.6,2.6-15.9,9.4-2.5,7.4-3.4,15.5,2.1,22.7,1,1.3,4.1,1.7,2.4,4.5-1.4,2.4-2.8,4.4-6.4,4.4-14.8-.2-29.7-0.1-44.5,0-3,.1-4.1-0.8-4-3.9,0.2-8.3.2-16.7,0-25-0.1-3.3,1.1-4.2,4.3-4.2,11,0.1,22,0,33,0,9.8,0,10.1,0,9.7-9.6-0.2-4.6,1.4-5.4,5.6-5.4,21.8,0.2,43.7.1,65.5,0.1C399.1,231.1,421.6,231.1,443.9,231ZM266.4,249.2c-2.8-.1-3.8.9-3.7,3.7,0.1,3.7,0,7.3,0,11,0,5.7,2.5,7,7.6,4s10.3-5.8,15.2-9.2a19.09,19.09,0,0,1,13.5-3.5c2.3,0.2,3.8-.3,3.7-3.2,0-2.7-1.5-2.9-3.5-2.9h-17C276.9,249.1,271.6,249.2,266.4,249.2Z" transform="translate(-18.05 -33)"/><path class="cls-1" d="M144.7,234.1c0.1,3.7-.7,5.4-4.9,5.1a87.76,87.76,0,0,0-14.5,0c-4.7.4-7.3-1.5-10-5.3-3.6-5-5.3-10-4.8-16.1a73.58,73.58,0,0,0,0-11.5c-0.3-3.4,1.1-6,3-8.6,2.6-3.6,5.3-7.1,7.8-10.8,6.9-10,6.8-9.9,19-9.9,3.7,0,4.5,1.3,4.4,4.6-0.2,8.9-.1,17.7-0.1,26.5S144.4,225.4,144.7,234.1Z" transform="translate(-18.05 -33)"/><path class="cls-1" d="M82.1,203.1h0c6.5-.1,13,0.1,19.7-0.1,3.8-.1,5.4.7,5.1,4.9-0.4,5.8,0,11.7-.1,17.5a9.48,9.48,0,0,0,1.5,5.6c2.4,3.4,4.9,6.6,7,10.2,1.4,2.4,3.2,2.9,5.7,2.9,6.8-.1,13.7,0,20.5,0,1.7,0,3.3,0,3.3,2.5s-1.5,2.5-3.3,2.5c-7.2,0-14.3-.1-21.5.1a7.73,7.73,0,0,1-6.8-3.2c-5.1-6.5-10.4-12.9-15.2-19.6a7.27,7.27,0,0,0-6.6-3.3c-12.2.1-24.3-.1-36.5,0.1-3.3,0-4.3-.9-4.3-4.2,0.1-12.7.1-25.3,0-38-0.1-2.5.3-4,3.4-4,2.9,0,3.7,1,3.6,3.8-0.1,5.7.4,11.4-.1,17-0.4,4.6,1.4,5.6,5.6,5.4,6.3-.4,12.7-0.1,19-0.1h0Z" transform="translate(-18.05 -33)"/><path class="cls-1" d="M309.6,228.2c-2.9,0-4.4-.7-4-3.9a13.41,13.41,0,0,0,0-4c-0.6-4.3,1.2-5.2,5.3-5.2,20.7,0.1,41.3,0,62,.1,2.8,0,4.6-.7,6.2-3,4.7-6.8,9.7-13.4,14.5-20.1,1.2-1.7,2.4-3.5,4.7-2.8,2.1,0.7,1.2,2.9,1.2,4.4,0.1,10-.1,20,0.1,30,0.1,3.5-1,4.5-4.5,4.5-14.2-.2-28.3-0.1-42.5-0.1S323.9,228,309.6,228.2Z" transform="translate(-18.05 -33)"/><path class="cls-1" d="M32.5,164.2a20.45,20.45,0,0,1,3.5,0c7.9,1.3,9.9,3.1,9.8,10.2-0.3,15.8,0,31.6-.2,47.4-0.1,2.5,1.6,4.9,0,7.6-4,6.7-7.9,13.5-11.7,20.3a4.7,4.7,0,0,1-4.4,2.5c-11.3.5-11.3,0.5-7.9-10,0.1-.5.4-0.9,0.5-1.4,2.7-9.9,8.5-18.6,11.8-28.3,2.2-6.2,1.3-11.7-3-16.4-5.8-6.5-9.4-13.5-8.3-21.3C22.6,164.1,22.6,164.1,32.5,164.2Z" transform="translate(-18.05 -33)"/><path class="cls-1" d="M450.3,189.1c9.2,0.1,15.1,4.1,16.6,13.1,2.6,15.5-1.9,25.2-17.3,25.8-14.5.6-29,.1-43.5,0.2-2.8,0-3.8-.8-3.8-3.7,0.1-10.5.2-21,0-31.5,0-3.1,1.1-4,4.1-3.9,7.7,0.1,15.3,0,23,0h20.9Zm-4.8,10.1c2.5,0,4.7-.9,4.6-3.4s-2.3-2.7-4.5-2.7c-11.4.1-22.9,0.1-34.4,0-2.4,0-3.8.4-3.7,3.2s1.6,2.8,3.6,2.8h17C433.9,199.1,439.7,199.1,445.5,199.2Zm-0.1,7.8c2.4,0.1,4.7-.6,4.6-3.2-0.1-2.2-2.3-2.8-4.5-2.8-11.5.1-22.9,0.1-34.4,0-2.3,0-3.7.6-3.6,3.3s1.6,2.8,3.6,2.8h17.4C434.2,207.1,439.8,207.1,445.4,207Zm-34.1,3.1c-2.2-.1-3.8.2-3.7,3.1,0,2.6,1.3,2.9,3.4,2.9h33.8a6.61,6.61,0,0,0,2.4-.3c1.6-.6,3-1.6,2.7-3.6-0.3-2.2-2.1-2.1-3.8-2.1H428.7m-0.6,8h-17c-2,0-3.6,0-3.6,2.8s1.3,3.2,3.7,3.2h34c2.4,0,4.5-.4,4.6-3.3,0.1-3.4-2.7-2.7-4.7-2.7h-17Z" transform="translate(-18.05 -33)"/><path class="cls-1" d="M32.8,285.1c-7-4.9-12.1-11.4-14-19.8s-0.5-10.2,7.9-10.2a33.79,33.79,0,0,1,4.5,0c2.9,0.4,4.3-.9,5.7-3.5,4-7.4,8.7-14.5,12.3-22.1,2.4-5.1,6.5-3.6,9.7-3.2s1.3,3.9,1.7,5.9c0.7,4.1-1.7,6.8-4.1,9.6q-9,10.2-17.7,20.7c-2.2,2.6-1.7,12.3.9,14.1,5.3,3.7,6.9,8.6,5.6,14.9C40.3,290.9,36.6,287.8,32.8,285.1Z" transform="translate(-18.05 -33)"/><path class="cls-1" d="M151.6,203.1c5.2,3,8,7.1,7.1,13.5-0.5,3.8.1,7.7-.1,11.5-0.2,3,.8,4.1,3.9,4,7.3-.2,14.7.1,22-0.1,3.4-.1,3.3,2.1,3.1,4.2s1,4.9-3,4.9c-11.3-.1-22.7,0-34,0-2,0-3-.6-3-2.8V200.1A37.92,37.92,0,0,0,151.6,203.1Z" transform="translate(-18.05 -33)"/><path class="cls-1" d="M225.7,173.8l-52-.1c10.1-4.3,11.6-11.6,10.8-19.9-0.1-1.5.1-3,0-4.5-0.2-2.2.5-3.3,3-3.3,10.9,0.1,16.9-2.3,16,14.1v1.5c-0.1,1.7.8,2.6,2.4,2.4,8.5-1.1,12.8,5.8,19.8,9.8h0ZM194,150.3c-3,.1-5.6,2-5.4,5.8,0.2,3.5,2.7,5.8,5.7,5.7s5.6-2,5.3-5.4C199.7,152.2,197,150.2,194,150.3Z" transform="translate(-18.05 -33)"/><path class="cls-1" d="M469.5,200.2c-0.6-2.3.7-3.2,3.1-3.2,5.3,0.2,10.7,0,16,.1,3.8,0.1,5.8,2,5.9,5.9s0.2,7.7,0,11.5c-0.2,3.5-2.2,5.6-5.7,5.6-6.4.1-12.9,0-19.7,0C470.1,213.3,471.4,206.8,469.5,200.2Z" transform="translate(-18.05 -33)"/><path class="cls-1" d="M373.6,156H274.1c-1.6,0-3.7.4-3.5-2.2,0.1-1.6-1.2-4.2,1.5-4.5,2.1-.2,4.9-1.7,6.5,1.6,1.5,3.1,10.5,3.3,11.8.2,0.7-1.5,1.3-2,2.8-2h0.3a2,2,0,0,1,2,2c0.6,3.5,3.4,1.9,5.2,1.9,2-.1,4.6,1.5,5.9-1.9,1.1-3,5.5-3,6.8.1,1.4,3.3,3.9,1.7,5.9,1.8,1.8,0,4.2,1.4,5.3-2,0.9-3,3.1-2.8,4.8-.2,1.5,2.2,11.1,3.6,11.6,1.4,1-4.5,4.1-3,6.6-3.1,4.5-.1,9,0.3,13.5-0.1,6-.6,10.6,1.4,14.4,6.6A5.85,5.85,0,0,1,373.6,156Z" transform="translate(-18.05 -33)"/><path class="cls-1" d="M110.5,185.1c-2.4,0-4-.4-5.3-2.7-1.1-1.9-3.4-2.3-5.7-2.3-9.5,0-19-.1-28.5,0a7.26,7.26,0,0,0-7.3,7.2v0.2a7.47,7.47,0,0,0,7.3,7.6c9.7,0.1,19.3,0,29,0,2.3,0,4.4-.7,5.5-2.7,1.9-3.4,4.3-2.4,7.6-1.5-3,2.8-3.1,7.3-8,7.3-13.4-.1-26.7-0.1-40,0-2.6,0-3.6-.8-3.5-3.4,0.2-4.7.2-9.4,0-14-0.2-2.9.9-3.7,3.7-3.7h56.9C117.6,185.3,117.6,185.2,110.5,185.1Z" transform="translate(-18.05 -33)"/><path class="cls-1" d="M400.5,156c-3.4.2-4-1.3-3.8-4.1,0.3-5.3,6.9-11.9,12.2-11.9,4.4,0,9,.6,13.4-0.1,6.7-1.1,9.5,2.8,11.7,7.9,2.4,5.7.8,8.3-5.2,8.3h-13C410.6,156.1,405.4,155.9,400.5,156Zm15.2-1.9a5.13,5.13,0,0,0,5.7-5.4c0-3-1.8-5.5-5.7-5.6s-5.8,2.5-5.8,5.5v1a5.32,5.32,0,0,0,5.8,4.5h0Z" transform="translate(-18.05 -33)"/><path class="cls-1" d="M194.5,241.2c-3.4,0-4.1-1.3-4.1-4.4s0.3-4.9,4.2-4.8c9.5,0.3,19,.1,28.5.1,5.7,0,9.4,2.7,11.9,9C221.2,241.1,207.9,241,194.5,241.2Z" transform="translate(-18.05 -33)"/><path class="cls-1" d="M422.6,257.2h0c-0.1-2.8-.1-5.6-0.1-8.5,0-.7-0.4-1.8,0-2.2,1.6-1.9,10.2.1,10.9,2.6a29.24,29.24,0,0,1,.4,14.1c-1.4,6.1-5.9,5.2-9.7,4.7s-0.7-3.8-1.4-5.8c-0.5-1.4-.1-3.2-0.1-4.9h0Z" transform="translate(-18.05 -33)"/><path class="cls-1" d="M72,191.1H71.7a3.61,3.61,0,0,1-3.7-3.6c0-2.2,1.8-3.4,4.1-3.4H98c2.5,0,4.5,1,4.5,3.5s-2.1,3.5-4.6,3.5H72Z" transform="translate(-18.05 -33)"/><path class="cls-1" d="M249.2,232.5c10-1.1,12.1-.1,17.3,8.2C256.1,241.9,251.8,239.7,249.2,232.5Z" transform="translate(-18.05 -33)"/><path class="cls-1" d="M234.4,232.4c9.1-.9,11.8.5,15.8,8C241.3,242.3,239.5,241.4,234.4,232.4Z" transform="translate(-18.05 -33)"/><path class="cls-1" d="M182.6,277.3a13.27,13.27,0,0,1,.5-15c4.3-6.1,10.4-8.2,18-6.8-2,4.3-5.5,5-9.5,4.7-1.7-.1-3.7.1-3.7,2.3-0.1,2.4,2.1,1.4,3.4,1.6a7.52,7.52,0,0,1,1.5,0c0.8,0.2,2.2-.5,2.1,1.1v0.1A1.8,1.8,0,0,1,193,267c-1.8,0-3.7.1-5.5,0.1-1.3.1-2.5,0.5-2.5,1.9s1.2,1.9,2.4,2c1.5,0.1,3,0,4.5.1,1.2,0,2.5-.2,2.7,1.5,0.5,4.8,3.1,8.5,7,12.2C193.1,285.9,186.7,284.2,182.6,277.3Z" transform="translate(-18.05 -33)"/><path class="cls-1" d="M329.9,254.3h0.5a2.31,2.31,0,0,1,2,2.5,3.11,3.11,0,0,1-2.7,3c-1.6.2-2.1-1.2-2.3-2.7C327.6,255.5,328.3,254.2,329.9,254.3Z" transform="translate(-18.05 -33)"/><circle class="cls-1" cx="324.72" cy="329.46" r="50.27"/><circle class="cls-1" cx="73.84" cy="69.33" r="37.38"/><circle class="cls-1" cx="402.3" cy="54.59" r="21.59" transform="translate(-21.19 0.41) rotate(-4.74)"/><path class="cls-1" d="M292.52,77.1V93.45H308.2v7H292.52V117h-7.35V100.5H269.5v-7h15.67V77.1h7.35Z" transform="translate(-18.05 -33)"/><path class="cls-1" d="M79.68,351v25.29h24.24v10.9H79.68v25.52H68.31V387.21H44.07v-10.9H68.31V351H79.68Z" transform="translate(-18.05 -33)"/></svg>