<svg id="Layer_1" data-name="Layer 1" xmlns="http://www.w3.org/2000/svg" viewBox="0 0 393.34 146.29"><defs><style>.cls-1{fill:#fff;}</style></defs><title>Untitled-1</title><path class="cls-1" d="M120.56,216.16c-4.36,1.25-8.72,2.26-12.91,3.76-4,1.45-6.78,4.67-9.06,8.14-1.51,2.3-2.54,4.93-5.7,5.46-2.24.38-2.92,2-3.21,4a22.52,22.52,0,0,1-.79,2.61L87,237c-0.69.49-1.41,0.92-2,1.46s-1.18,1.59-1.94,1.83a31.64,31.64,0,0,1-4.75.77c0-1.47-.53-3.25.11-4.36a74.62,74.62,0,0,1,5.46-7.45c-1.71-1.21-.21-2.6.26-4.45,0.82-3.22,3.34-3.49,5.42-4.87a19.48,19.48,0,0,0,5.72-5.68c3.35-5.4,8.36-8.09,13.94-10.56,5.09-2.25,9.7-5.57,14.52-8.42a2.66,2.66,0,0,1,.36-0.33c1.9-.59,4.17-0.72,5.6-1.88s1.69-3.41,2.78-5,2.88-1.39,4.49-.42c1,0.57,1.93,1.12,3.36,2,0.28-1.19.45-2.12,0.71-3a46,46,0,0,1,2.14-6.74,4.76,4.76,0,0,1,3-2.47c4.71-.68,9.54-1.31,13.62,2.13,1.61,1.36,2.26,2.63,1.48,5.18s-0.08,5.77.34,8.64c0.18,1.22.27,1.65-.88,2.46-1,.7-1.26,2.39-1.86,3.63-0.32.65-.67,1.29-1.14,2.2a38.49,38.49,0,0,0-4.16-.28,5.62,5.62,0,0,0-1.91.85,4.32,4.32,0,0,0,1.39,1.31c3.65,0.92,5.13,3.44,6.61,6.8,4,9.17,11.39,13.59,22.17,9.52,0.45-.17.89-0.37,1.33-0.58,3.51-1.73,3.51-1.73,7,.08,1.53-1.79,3-3.79,5.92-3.72a2.59,2.59,0,0,0,1.48-2c-1-3.56,2-3.46,3.69-3.58,4.58-.34,9.2-0.17,13.8-0.05a2.38,2.38,0,0,1,1.64,1.39,3.83,3.83,0,0,1-.13,2.42,13.69,13.69,0,0,1-1.64,2.51c-0.85,0-2.08-.07-3.29,0-1.88.14-3.75,0.1-5,2.13-0.44.72-2,.77-3.12,1.16a9.16,9.16,0,0,1-8.58,6.53,24.28,24.28,0,0,1-2.7,0c-2.36-.26-3.81.44-3.74,3.1a1.31,1.31,0,0,1-.47,1c-2.41,1.12-4.15,3.82-7.48,2.86a6.94,6.94,0,0,0-4.32.23c-7.58,3.23-14.27,1.16-20.69-3.07-1.14-.75-2.35-1.39-3.93-2.32-1.38,2.69-2.8,5.25-4,7.9-1.62,3.49-3,7.09-4.65,10.55-1.92,4-1.54,3.41,1.49,7.09,2.89,3.5,6.18,6.68,9.05,10.19a26.18,26.18,0,0,1,3,5.49,6.63,6.63,0,0,1-1.32,7.63c-3.95,4.13-8.3,7.89-12.5,11.78-1.37,1.27-2.67,2.4-2.86,4.57-0.27,3.11-1.1,3.62-4.65,3.9-1,4,1.36,6.41,4,8.57,0.9,0.72,1.66,1.25.76,2.22a2.72,2.72,0,0,1-2.21.8,38.43,38.43,0,0,1-5.11-2.07c-3.83-1.72-6.95-4.68-11.19-5.79-3.19-.84-3.43-2.6-1.77-5.6a23.9,23.9,0,0,0,1-3.37,16.55,16.55,0,0,1,1.81-4.26c1.85-2.48,4.1-4.67,6-7.12,2.37-3,4.94-5.76,8.62-7.22a4.86,4.86,0,0,0,1-.87l-6.75-5c-4.14,4.82-8.31,9.78-12.61,14.62-2,2.23-4.34,4.13-6.34,6.35q-5,5.59-9.82,11.41c-1.11,1.35-1.94,2.25-3.7.88a8.27,8.27,0,0,0-3.67-1.75c-1.48-.21-3.49-0.31-4.49.5a24.58,24.58,0,0,0-5.4,6.17c-1.81,3-3.74,5.24-7.67,4.69-0.17.69-.29,1.3-0.46,1.9-1,3.7-.38,5.23,2.72,7.51a7.32,7.32,0,0,1,1.4,2.3A11.53,11.53,0,0,1,78.9,323c-3.82.74-6-1.13-7.54-4.49a11.94,11.94,0,0,0-3.62-3.9A6.79,6.79,0,0,1,66,306.89a3.36,3.36,0,0,0,.5-1.82c-0.45-3.31,1.7-5,3.86-6.87a9.87,9.87,0,0,0,1.53-2.31,14.69,14.69,0,0,0-2.37-.89c-5.78-1.12-10.51-4.27-15-7.86C53,285.91,53,284.36,54,282.61A49.56,49.56,0,0,1,68.14,268c6.27-4.45,12.79-8.57,19.3-12.7,7-4.46,13.95-9.08,19.59-15.29S119.23,223.79,120.56,216.16Z" transform="translate(-53.33 -176.86)"/><path class="cls-1" d="M324.87,239.43l-3.74-14.48c-4.44-1.08-7.45.07-9.62,4.15-1.75,3.3-4.32,6.17-6.64,9.14a3.24,3.24,0,0,1-2.21,1.14c-13.35.06-26.7,0-40,0a5.92,5.92,0,0,1-1-.27c0.64-2.72,1.22-5.43,1.93-8.1,1.35-5.1,2.79-10.17,4.18-15.26,0.48-1.77,1.18-2.7,3.44-2.51,4,0.34,8,.1,12.22.1l-4.29,15.22c5,0,10,0,15.05-.06a2.91,2.91,0,0,0,1.67-1.29c3.15-4.21,6.25-8.48,9.38-12.71a3.51,3.51,0,0,1,3.93-1.45c3,0.49,6.19.22,9.29,0.23,3.54,0,7.08,0,10.62,0,0.24,0,.49,0,0.73.05,1.58,0.14,4-.3,4.56.53,1.11,1.59,1.25,3.89,1.69,5.92,1,4.43,1.87,8.88,3.3,13.31q2-7,4.08-14a39.22,39.22,0,0,1,1.38-4.82,2.72,2.72,0,0,1,2.08-1.14c4.09-.11,8.19-0.05,13.08-0.05l-4.42,15.58a12.17,12.17,0,0,0,2.9,0c7.29-2,10.11-5.37,10.72-15.55,3.9,0,7.85,0,11.8.06a1.83,1.83,0,0,1,1.25,1.27c0.15,6.63-1.42,12.67-5.83,17.9s-9.84,7.26-16.57,7.14C348.22,239.28,336.68,239.43,324.87,239.43Z" transform="translate(-53.33 -176.86)"/><path class="cls-1" d="M218.61,239.43c1.87-6.58,3.6-12.56,5.27-18.56,0.58-2.08,1-4.2,1.59-6.27,0.36-1.26,1.18-1.45,2.59-1.43,5.85,0.08,11.7-.24,17.55-0.28,5.29,0,10.59.09,15.88,0.19a7,7,0,0,1,1.7.51,6.8,6.8,0,0,1-4,5.91c2,3.37,2,6.82,1.12,10.42-1.16,4.57-7.23,9.5-11.93,9.5H218.61Z" transform="translate(-53.33 -176.86)"/><path class="cls-1" d="M238,274.83c0.59,3.57-1.52,5.51-3.57,7.44a3.83,3.83,0,0,0-1.47,3.91c0.36,3.06-.43,6.39-1.28,9.45-1.61,5.79-1.77,5.75-7.66,5.75h-8l4.38-14.61H209.36c-1.35,4.15-2.81,8.43-4.09,12.76a2.16,2.16,0,0,1-2.51,1.89c-4-.1-7.94,0-12.26,0,1.23-4.41,2.34-8.36,3.43-12.31,1.15-4.15,2.2-8.33,3.49-12.43a3,3,0,0,1,2.15-1.73C212.34,274.8,225.1,274.83,238,274.83Z" transform="translate(-53.33 -176.86)"/><path class="cls-1" d="M446.32,275.11c-1.23,3.34-2.17,6.23-5.09,7.92a2.12,2.12,0,0,0-.87,1.79c1.57,5.65-.91,10.58-2.67,15.63a1.92,1.92,0,0,1-1.48.9c-3.52.08-7,0-10.57,0-1.21,0-1.74-.27-1.27-1.78,1.3-4.19,2.36-8.44,3.6-13-3.38,0-6.63-.1-9.87.09a2.92,2.92,0,0,0-1.86,1.82c-1.13,3.58-2,7.23-3.09,10.84a2.32,2.32,0,0,1-2.55,2c-3.92-.12-7.86,0-12,0a4.18,4.18,0,0,1-.12-1.39c2.26-7.83,4.58-15.65,6.82-23.49,0.39-1.35,1.08-1.7,2.42-1.7,12,0,24.09,0,36.14,0C444.55,274.84,445.23,275,446.32,275.11Z" transform="translate(-53.33 -176.86)"/><path class="cls-1" d="M319.54,274.83c-0.61,2.59-1.12,4.9-1.69,7.19-1.32,5.27-2.72,10.53-4,15.81-0.75,3.12-1.16,3.55-4.34,3.55H297.45c1.07-3.88,1.92-7.53,3.11-11.07,1-2.93,1-5.32-1.78-7.29a29.17,29.17,0,0,1-3.47-3.53c-1.26,4.4-2.42,8.39-3.54,12.39-0.71,2.54-1.23,5.14-2.09,7.62a3.08,3.08,0,0,1-2.12,1.8c-3.91.18-7.83,0.08-12.07,0.08a33.76,33.76,0,0,1,.59-4.37q2.86-10.53,5.91-21a2,2,0,0,1,1.52-1.12C295.36,274.82,307.22,274.83,319.54,274.83Z" transform="translate(-53.33 -176.86)"/><path class="cls-1" d="M336,279.8l-6,21.31H316c2.31-8.51,4.52-16.74,6.82-24.94a2.21,2.21,0,0,1,1.61-1.28c11.62-.07,23.25-0.06,34.87,0a3.8,3.8,0,0,1,1.14.42l-6.78,25.84H338.49c1.22-4.77,2.46-9.21,3.42-13.71a4.37,4.37,0,0,0-.95-3.3A46.46,46.46,0,0,0,336,279.8Z" transform="translate(-53.33 -176.86)"/><path class="cls-1" d="M358.48,301.38c0.41-1.95.69-3.66,1.13-5.32,1.76-6.56,3.53-13.11,5.42-19.63a2.6,2.6,0,0,1,1.88-1.53c10.23-.09,20.46-0.06,30.7,0a6,6,0,0,1,1.08.29c-0.89,3.47-1.71,6.95-2.75,10.36a2.64,2.64,0,0,1-2.06,1.08c-4.25.1-8.52,0.18-12.77,0-2.27-.1-3.49.62-3.79,3.26h17c-0.74,3.32-1.49,6.13-2,9-0.35,2.1-1.34,2.64-3.41,2.61-9.25-.12-18.5-0.05-27.75-0.05h-2.76Z" transform="translate(-53.33 -176.86)"/><path class="cls-1" d="M420,213.53c-0.84,3.2-1.72,6.1-2.32,9.06-0.32,1.58-.9,2.15-2.53,2.11-4.17-.1-8.35,0-12.52,0-3.34,0-3.34,0-3.93,3.45h17.12L413,239.3H379.64c1.18-4.57,2.33-9,3.45-13.37,0.88-3.48,1.69-7,2.61-10.46,0.37-1.38.37-2.71,2.88-2.27,3,0.53,6.29-.18,9.45-0.28,2.37-.07,4.75,0,7.12,0,4.42,0,8.84,0,13.25.11A5.62,5.62,0,0,1,420,213.53Z" transform="translate(-53.33 -176.86)"/><path class="cls-1" d="M277.79,274.83c-0.66,2.83-1.16,5.33-1.82,7.78-1.48,5.56-3.06,11.09-4.53,16.66a2.45,2.45,0,0,1-2.87,2.16c-6.71-.13-13.44.18-20.15-0.13-4.79-.22-9.86-1.87-11-7.74a6.35,6.35,0,0,1-.19-2.62c1.24-4.8,2.53-9.58,4-14.32a3,3,0,0,1,2.17-1.71c3.35-.19,6.71-0.07,10.07-0.09,1.5,0,2,.36,1.43,2-1.24,3.71-2.24,7.5-3.27,11.27a19.07,19.07,0,0,0-.31,2.91c2.46,0,4.73.08,7-.06a2.06,2.06,0,0,0,1.38-1.27c1.23-4.22,2.34-8.48,3.51-12.71,0.33-1.2.73-2.24,2.39-2.2C269.48,274.89,273.32,274.83,277.79,274.83Z" transform="translate(-53.33 -176.86)"/><path class="cls-1" d="M446.48,272.79H403c1.22-2.17,2.3-4.23,3.52-6.21,3-4.81,5-5.34,10.81-4.3,3.17,0.56,6.5.17,9.76,0.19s6.75,0,10.12,0c1.84,0,3.87-.1,5.48.6C446.81,264.94,447,268.69,446.48,272.79Z" transform="translate(-53.33 -176.86)"/><path class="cls-1" d="M239.33,272.74H195.41c1.9-3.29,3.7-6.47,5.6-9.59a2,2,0,0,1,1.47-.59c5.45-.2,10.9-0.45,16.36-0.48,3.41,0,6.81.32,10.22,0.45a33.89,33.89,0,0,1,4.68.06,5.33,5.33,0,0,1,4.49,4.19C238.68,268.68,238.95,270.64,239.33,272.74Z" transform="translate(-53.33 -176.86)"/><path class="cls-1" d="M362.45,273.35c2.25-3.89,4-7.26,6.16-10.43,0.45-.68,2-0.84,3.1-0.83,2.67,0,5.34.42,8,.41,3.32,0,6.65-.37,10-0.44,4-.08,7.93,0,12.49,0-0.92,4-1.64,7.34-2.48,10.62a1.79,1.79,0,0,1-1.41.66C386.6,273.36,374.9,273.35,362.45,273.35Z" transform="translate(-53.33 -176.86)"/><path class="cls-1" d="M222.49,211.24a84.48,84.48,0,0,0,5.57-7.28c1.89-3.1,4.49-3.54,7.79-3.43,6.87,0.22,13.76.06,20.64,0.07a6.47,6.47,0,0,1,6.74,6.59c0,1.3,0,2.6,0,4.06H222.49Z" transform="translate(-53.33 -176.86)"/><path class="cls-1" d="M323.69,273.35c1-3.64,1.85-6.87,2.94-10,0.19-.54,1.55-0.91,2.39-1a64.4,64.4,0,0,1,9.23-.11c1.33,0.12,2.69,1.24,3.79,2.19,1.71,1.49,3.21,3.22,4.9,5,2-7.71,2-7.74,9.67-7.36,2.25,0.11,4.48.46,7.14,0.74-0.9,3.22-1.74,6.43-2.75,9.58a2.16,2.16,0,0,1-1.71.92C347.7,273.36,336.1,273.35,323.69,273.35Z" transform="translate(-53.33 -176.86)"/><path class="cls-1" d="M384.06,210.94l1-1.68c1.51-2.54,3-5.11,4.57-7.61a2.37,2.37,0,0,1,1.66-1c10.38,0,20.77,0,31.15,0a3.78,3.78,0,0,1,.85.4c-0.72,3.14-1.44,6.39-2.26,9.61a1.53,1.53,0,0,1-1.21.72q-17.65,0-35.31-.08A2,2,0,0,1,384.06,210.94Z" transform="translate(-53.33 -176.86)"/><path class="cls-1" d="M323,262.56c-1,3.58-1.87,6.82-2.86,10a1.74,1.74,0,0,1-1.38.74c-11.7,0-23.41,0-35.74,0,0.89-3.59,1.67-6.89,2.55-10.16a1.56,1.56,0,0,1,1.19-.63c3.32-.21,6.66-0.53,10-0.43a6.83,6.83,0,0,1,3.8,1.67c2,1.66,3.72,3.63,5.7,5.6,0.29-1.15.53-2,.74-2.94,1-4.18,1.11-4.4,5.51-4.39C315.81,262.08,319.13,262.37,323,262.56Z" transform="translate(-53.33 -176.86)"/><path class="cls-1" d="M342.16,211.27c2.16-3.58,4.14-6.93,6.21-10.22a2,2,0,0,1,1.47-.45c7.36,0,14.72-.22,22.07.05,4.82,0.18,9.76,5,9.71,10.61H342.16Z" transform="translate(-53.33 -176.86)"/><path class="cls-1" d="M332,200.59l1.93,10.55h-25c1.23-1.7,2.43-3.41,3.69-5.08s2.31-3.08,3.59-4.52a2.82,2.82,0,0,1,1.83-.91C322.6,200.55,327.16,200.59,332,200.59Z" transform="translate(-53.33 -176.86)"/><path class="cls-1" d="M269.18,211.4c0.86-3.33,1.57-6.36,2.47-9.33a2.41,2.41,0,0,1,1.71-1.42c4.41-.12,8.82-0.07,13.47-0.07-0.85,3.25-1.57,6.32-2.5,9.33a2.43,2.43,0,0,1-1.74,1.42C278.19,211.46,273.78,211.4,269.18,211.4Z" transform="translate(-53.33 -176.86)"/><path class="cls-1" d="M281.12,262.65c-0.82,3.33-1.51,6.51-2.43,9.61a2.52,2.52,0,0,1-2,1c-3.9.1-7.81,0-12.31,0l2.78-10.7h13.92Z" transform="translate(-53.33 -176.86)"/><path class="cls-1" d="M258.89,262.54c-0.91,3.34-1.66,6.43-2.66,9.45a2.69,2.69,0,0,1-2.06,1.31c-3.75.13-7.51,0.06-11.87,0.06,0.64-2.69,1.37-5.08,1.77-7.53,0.43-2.62,1.64-3.57,4.36-3.35C251.83,262.75,255.27,262.54,258.89,262.54Z" transform="translate(-53.33 -176.86)"/></svg>